# xmcd
#
# Track frame offsets: 
#        150
#        14675
#        25960
#        35849
#        48129
#        61653
#        72330
#        83681
#        95781
#        109450
#        123151
#        136721
#        148235
#        158930
#        169338
#        179465
#        192093
#        205671
#        216470
#        228902
#        241449
#        253184
#
# Disc length: 3525 seconds
#
# Revision: 1
# Processed by: cddbd v1.5.2PL0 Copyright (c) Steve Scherf et al.
# Submitted via: ExactAudioCopy v1.0b3
#
DISCID=450dc316
DTITLE=Delmore Brothers, The - Classic Cuts - 1933-41 [Disc C]
DYEAR=2004
DGENRE=Hillbilly
TTITLE0=Lead Me
TTITLE1=I Need The Prayers Of Those I Love 
TTITLE2=I've Got The Railroad Blues 
TTITLE3=The Weary Lonesome Blues
TTITLE4=Heavenly Light Is Shining On Me
TTITLE5=Wonderful There   
TTITLE6=Singing My Troubles Away 
TTITLE7=They Say It Is Sinful To Flirt 
TTITLE8=Till The Roses Bloom Again
TTITLE9=When We Held Our Hymn Books Together 
TTITLE10=Hi De Ho Baby Mine 
TTITLE11=Goodbye Booze 
TTITLE12=Careless Love (Bring My Baby Back) 
TTITLE13=In That Vine Covered Chapel In The Valley 
TTITLE14=The Cannon Ball 
TTITLE15=15 Miles From Birmingham 
TTITLE16=Where Is My Sailor Boy 
TTITLE17=Just The Same Sweet Thing To Me
TTITLE18=A Better Range Is Home 
TTITLE19=Don't Let My Ramblin' Bother Your Mind
TTITLE20=Wabash Blues
TTITLE21=Go Easy Mabel 
EXTD=YEAR: 2004
EXTT0=
EXTT1=
EXTT2=
EXTT3=
EXTT4=
EXTT5=
EXTT6=
EXTT7=
EXTT8=
EXTT9=
EXTT10=
EXTT11=
EXTT12=
EXTT13=
EXTT14=
EXTT15=
EXTT16=
EXTT17=
EXTT18=
EXTT19=
EXTT20=
EXTT21=
PLAYORDER=
